#!OML:ASF X:\für Bonn\!DataBase\2005_08_11_Bastian_Final\c3d\Bastian.ASF
:FULLY-SPECIFIED
:DEGREES
31
root 0.38036 16.6389 0.961584 144.139 -16.3167 -173.51
lowerback 38.2329 -5.49804 0.832882
upperback 15.1599 -12.7795 3.37835
thorax -1.04498 -9.14109 7.33221
lowerneck -8.57834 -6.20586 -8.89346
upperneck -4.85724 -7.08631 9.1515
head 0.673943 -3.17611 4.35909
rclavicle 2.56432e-014 -4.21423e-014
rhumerus -38.9468 44.0049 -101.046
rradius 30.9807
rwrist -33.0378
rhand -38.1597 4.39286
rfingers 7.12502
rthumb -11.1933 -25.2886
lclavicle 2.56432e-014 -4.21423e-014
lhumerus 46.8427 -23.617 78.9021
lradius 110.621
lwrist -17.1678
lhand -53.186 -21.3123
lfingers 7.12502
lthumb -25.6439 6.98077
rfemur -63.3455 6.32634 32.7227
rtibia 130.585
rfoot 12.9208 -5.77194
rtoes -15.3391
lfemur 19.0977 -1.8359 -16.1553
ltibia 38.4659
lfoot -13.9095 -8.78564
ltoes 5.06247
32
root 0.359312 16.5942 0.97662 143.293 -16.2831 -173.416
lowerback 39.5556 -5.63003 1.18871
upperback 15.2173 -13.0889 3.4473
thorax -1.22069 -9.41009 7.458
lowerneck -8.88575 -6.16365 -9.07165
upperneck -4.86972 -6.95757 9.49407
head 0.660432 -3.09147 4.07243
rclavicle 4.03533e-014 -6.52014e-014
rhumerus -39.2836 43.1988 -100.886
rradius 31.2939
rwrist -32.8204
rhand -37.9086 5.0803
rfingers 7.12502
rthumb -10.9511 -24.6141
lclavicle 4.03533e-014 -6.52014e-014
lhumerus 47.366 -23.2354 78.5611
lradius 111.498
lwrist -18.1022
lhand -53.3114 -21.0418
lfingers 7.12502
lthumb -25.764 7.23385
rfemur -65.399 5.82334 33.5422
rtibia 132.007
rfoot 13.0649 -5.35601
rtoes -15.7799
lfemur 19.7225 -1.6788 -16.011
ltibia 38.9106
lfoot -14.1098 -9.04704
ltoes 5.37571
33
root 0.337311 16.5621 0.992484 142.49 -16.2507 -173.307
lowerback 40.6916 -5.77442 1.57368
upperback 15.3859 -13.4006 3.50558
thorax -1.3611 -9.67712 7.54925
lowerneck -9.05274 -6.12433 -9.26798
upperneck -5.01194 -6.85109 9.52943
head 0.643317 -3.02466 4.11853
rclavicle 3.24019e-014 -7.31528e-014
rhumerus -39.6146 42.3558 -100.672
rradius 31.7037
rwrist -32.5337
rhand -37.5983 5.74937
rfingers 7.12502
rthumb -10.6519 -23.9606
lclavicle 3.24019e-014 -7.31528e-014
lhumerus 47.7639 -22.8918 78.2528
lradius 112.23
lwrist -19.0864
lhand -53.5275 -20.9797
lfingers 7.12502
lthumb -25.9709 7.26583
rfemur -67.3871 5.33526 34.4034
rtibia 133.241
rfoot 13.2548 -5.01597
rtoes -16.2192
lfemur 20.3863 -1.54138 -15.8586
ltibia 39.1699
lfoot -14.202 -9.28465
ltoes 5.70482
34
root 0.315358 16.5424 1.00889 141.679 -16.1961 -173.194
lowerback 41.8131 -5.91756 1.96719
upperback 15.5517 -13.7065 3.56187
thorax -1.48725 -9.94392 7.63326
lowerneck -9.20997 -6.08221 -9.43616
upperneck -5.14769 -6.74436 9.55972
head 0.625136 -2.95848 4.15887
rclavicle 1.78906e-014 5.24792e-014
rhumerus -39.9986 41.5321 -100.472
rradius 32.1975
rwrist -32.2775
rhand -37.2643 6.39469
rfingers 7.12502
rthumb -10.3296 -23.3316
lclavicle 1.78906e-014 5.24792e-014
lhumerus 48.0301 -22.5248 77.9899
lradius 112.852
lwrist -20.011
lhand -53.7785 -21.0833
lfingers 7.12502
lthumb -26.2112 7.12675
rfemur -69.2309 4.88864 35.3082
rtibia 134.281
rfoot 13.5272 -4.82911
rtoes -16.6485
lfemur 21.1446 -1.46204 -15.732
ltibia 39.2729
lfoot -14.2507 -9.46794
ltoes 5.86112
35
root 0.29242 16.522 1.02489 140.929 -16.1326 -173.096
lowerback 42.8396 -6.05129 2.36383
upperback 15.7241 -13.9928 3.62061
thorax -1.56764 -10.2011 7.69987
lowerneck -9.28499 -6.05104 -9.57652
upperneck -5.38162 -6.65311 9.59799
head 0.565893 -2.90065 4.20005
rclavicle -6.85807e-014 7.31528e-014
rhumerus -40.3657 40.7332 -100.257
rradius 32.724
rwrist -32.0766
rhand -36.9369 6.99273
rfingers 7.12502
rthumb -10.0138 -22.749
lclavicle -6.85807e-014 7.31528e-014
lhumerus 48.2951 -22.2154 77.7536
lradius 113.356
lwrist -20.8358
lhand -54.0396 -21.3384
lfingers 7.12502
lthumb -26.4612 6.83426
rfemur -71.1356 4.54799 36.1697
rtibia 135.231
rfoot 13.9195 -4.76364
rtoes -16.9627
lfemur 21.8923 -1.43111 -15.6663
ltibia 39.2785
lfoot -14.3036 -9.54559
ltoes 5.73371
36
root 0.269045 16.5019 1.04124 140.251 -16.056 -173.009
lowerback 43.7959 -6.16213 2.72546
upperback 15.8717 -14.2506 3.7288
thorax -1.63186 -10.4463 7.82069
lowerneck -9.30677 -6.01825 -9.77628
upperneck -5.64823 -6.55718 9.63373
head 0.48984 -2.84057 4.25207
rclavicle -2.76311e-014 3.81667e-014
rhumerus -40.8608 40.156 -100.06
rradius 33.3711
rwrist -32.0324
rhand -36.6745 7.44223
rfingers 7.12502
rthumb -9.76061 -22.3116
lclavicle -2.76311e-014 3.81667e-014
lhumerus 48.5015 -21.9141 77.6394
lradius 113.817
lwrist -21.5571
lhand -54.2229 -21.6825
lfingers 7.12502
lthumb -26.6367 6.46364
rfemur -73.0877 4.33083 36.9756
rtibia 136.112
rfoot 14.2517 -5.02792
rtoes -16.6199
lfemur 22.5897 -1.42404 -15.6283
ltibia 39.2467
lfoot -14.3284 -9.61203
ltoes 5.98125
37
root 0.245621 16.4833 1.05799 139.646 -15.9415 -172.926
lowerback 44.6511 -6.21578 3.05307
upperback 16.02 -14.4507 3.90766
thorax -1.64352 -10.6726 7.99717
lowerneck -9.30207 -6.01206 -10.0133
upperneck -5.97412 -6.49038 9.64487
head 0.394758 -2.79317 4.30274
rclavicle -4.96962e-014 6.44062e-014
rhumerus -41.317 39.6702 -99.7831
rradius 34.0025
rwrist -32.0264
rhand -36.4825 7.82888
rfingers 7.12502
rthumb -9.57536 -21.9335
lclavicle -4.96962e-014 6.44062e-014
lhumerus 48.687 -21.6718 77.6318
lradius 114.233
lwrist -22.1656
lhand -54.3753 -22.1619
lfingers 7.12502
lthumb -26.7826 5.96201
rfemur -75.0287 4.26402 37.7249
rtibia 136.913
rfoot 14.5252 -5.38276
rtoes -16.0928
lfemur 23.2061 -1.39406 -15.5828
ltibia 39.227
lfoot -14.4354 -9.63607
ltoes 5.78774
38
root 0.222234 16.4666 1.07601 139.139 -15.8225 -172.845
lowerback 45.4043 -6.25894 3.36274
upperback 16.1534 -14.6293 4.10738
thorax -1.63315 -10.8846 8.18587
lowerneck -9.22656 -5.99767 -10.2299
upperneck -6.36693 -6.41623 9.65401
head 0.2674 -2.74247 4.35269
rclavicle 8.3092e-014 -1.07344e-013
rhumerus -41.7785 39.2716 -99.5161
rradius 34.595
rwrist -32.0028
rhand -36.3333 8.16226
rfingers 7.12502
rthumb -9.43137 -21.6067
lclavicle 8.3092e-014 -1.07344e-013
lhumerus 48.8552 -21.4261 77.6156
lradius 114.637
lwrist -22.557
lhand -54.4165 -22.6478
lfingers 7.12502
lthumb -26.8219 5.47001
rfemur -77.0435 4.31694 38.4256
rtibia 137.628
rfoot 14.902 -5.76287
rtoes -15.7373
lfemur 23.7165 -1.40956 -15.5763
ltibia 39.202
lfoot -14.5213 -9.60704
ltoes 6.01134
39
root 0.199186 16.4534 1.09455 138.704 -15.6545 -172.767
lowerback 46.108 -6.24856 3.63524
upperback 16.2653 -14.7512 4.37482
thorax -1.61287 -11.0755 8.43961
lowerneck -9.19 -5.99608 -10.4744
upperneck -6.73114 -6.35553 9.63525
head 0.155209 -2.69625 4.39661
rclavicle 1.11319e-014 4.85035e-014
rhumerus -42.2001 38.9573 -99.1966
rradius 35.1159
rwrist -31.9854
rhand -36.2546 8.48794
rfingers 7.12502
rthumb -9.35543 -21.2845
lclavicle 1.11319e-014 4.85035e-014
lhumerus 49.022 -21.1818 77.6725
lradius 115.056
lwrist -22.8041
lhand -54.3505 -23.0351
lfingers 7.12502
lthumb -26.7588 5.09239
rfemur -79.0252 4.49003 39.0743
rtibia 138.231
rfoot 15.2207 -6.14879
rtoes -15.466
lfemur 24.157 -1.38859 -15.5358
ltibia 39.18
lfoot -14.6268 -9.58054
ltoes 6.14241
40
root 0.17753 16.4426 1.11257 138.298 -15.4705 -172.669
lowerback 47.673 -6.36764 4.1199
upperback 15.4425 -14.8577 4.77363
thorax -1.63513 -11.2661 8.56332
lowerneck -9.10215 -5.99067 -10.6166
upperneck -7.16686 -6.29846 9.58357
head 0.00971973 -2.65264 4.41633
rclavicle -2.50469e-014 -1.98785e-014
rhumerus -42.5175 38.5539 -98.8474
rradius 35.4834
rwrist -31.8053
rhand -36.1425 8.8248
rfingers 7.12502
rthumb -9.24726 -20.9524
lclavicle -2.50469e-014 -1.98785e-014
lhumerus 49.2136 -20.959 77.6768
lradius 115.449
lwrist -22.8859
lhand -54.1858 -23.3584
lfingers 7.12502
lthumb -26.6011 4.79314
rfemur -80.9672 4.63364 39.6742
rtibia 138.743
rfoot 15.3767 -6.49139
rtoes -15.1503
lfemur 24.5484 -1.3902 -15.4761
ltibia 39.1836
lfoot -14.7248 -9.53171
ltoes 6.51667
41
root 0.155986 16.4305 1.1301 137.919 -15.2715 -172.58
lowerback 48.3542 -6.36336 4.41645
upperback 15.493 -14.95 5.03367
thorax -1.61786 -11.4381 8.78481
lowerneck -9.01286 -5.98475 -10.7705
upperneck -7.58117 -6.24226 9.55732
head -0.128127 -2.60894 4.44536
rclavicle -2.8625e-014 4.13472e-014
rhumerus -42.864 38.1552 -98.5415
rradius 35.7526
rwrist -31.5248
rhand -36.0579 9.14103
rfingers 7.12502
rthumb -9.16564 -20.6398
lclavicle -2.8625e-014 4.13472e-014
lhumerus 49.4155 -20.7586 77.6385
lradius 115.857
lwrist -22.82
lhand -53.9705 -23.5889
lfingers 7.12502
lthumb -26.3951 4.59368
rfemur -82.7738 4.75844 40.1687
rtibia 139.151
rfoot 15.3781 -6.74174
rtoes -14.7324
lfemur 24.8884 -1.38156 -15.418
ltibia 39.2574
lfoot -14.8152 -9.49903
ltoes 7.00652
42
root 0.135531 16.4119 1.14691 137.575 -15.0504 -172.503
lowerback 49.0066 -6.33483 4.67843
upperback 15.5458 -15.0284 5.29416
thorax -1.58567 -11.6065 9.01412
lowerneck -8.92284 -5.96435 -10.8978
upperneck -7.99929 -6.16831 9.54403
head -0.26915 -2.556 4.47498
rclavicle 3.53837e-014 -1.16885e-013
rhumerus -43.1262 37.7623 -98.2019
rradius 35.9336
rwrist -31.1612
rhand -35.908 9.44961
rfingers 7.12502
rthumb -9.021 -20.3375
lclavicle 3.53837e-014 -1.16885e-013
lhumerus 49.6191 -20.5356 77.6181
lradius 116.189
lwrist -22.6719
lhand -53.7452 -23.8772
lfingers 7.12502
lthumb -26.1794 4.33758
rfemur -84.4666 4.9619 40.5765
rtibia 139.484
rfoot 15.3836 -7.03356
rtoes -14.7126
lfemur 25.1646 -1.38559 -15.3794
ltibia 39.4091
lfoot -14.9781 -9.42167
ltoes 7.29188
43
root 0.115034 16.386 1.16235 137.275 -14.8329 -172.427
lowerback 49.5844 -6.33625 4.97397
upperback 15.6152 -15.1189 5.49263
thorax -1.5364 -11.7679 9.15813
lowerneck -8.82514 -5.9367 -10.9037
upperneck -8.42639 -6.09508 9.51448
head -0.418148 -2.50583 4.48036
rclavicle -2.62396e-014 -1.43125e-014
rhumerus -43.3037 37.2722 -97.9101
rradius 36.0294
rwrist -30.6465
rhand -35.7842 9.67507
rfingers 7.12502
rthumb -8.90158 -20.1172
lclavicle -2.62396e-014 -1.43125e-014
lhumerus 49.807 -20.3659 77.5636
lradius 116.484
lwrist -22.4666
lhand -53.5292 -24.2372
lfingers 7.12502
lthumb -25.9725 4.00809
rfemur -86.0686 5.20849 40.8918
rtibia 139.735
rfoot 15.4042 -7.41697
rtoes -14.9464
lfemur 25.3629 -1.41316 -15.3668
ltibia 39.6227
lfoot -15.1485 -9.313
ltoes 7.54622
